<?xml version="1.0" encoding="UTF-8" standalone="no"?>
<!-- Created with Inkscape (http://www.inkscape.org/) -->

<svg
   width="455.93161"
   height="102.96879"
   viewBox="0 0 455.93161 102.96879"
   version="1.1"
   id="svg1"
   xml:space="preserve"
   inkscape:version="1.4.2 (f4327f4, 2025-05-13)"
   sodipodi:docname="MediTrack_logo_svg.svg"
   inkscape:export-filename="MediTrack_logo_png.png"
   inkscape:export-xdpi="96"
   inkscape:export-ydpi="96"
   xmlns:inkscape="http://www.inkscape.org/namespaces/inkscape"
   xmlns:sodipodi="http://sodipodi.sourceforge.net/DTD/sodipodi-0.dtd"
   xmlns="http://www.w3.org/2000/svg"
   xmlns:svg="http://www.w3.org/2000/svg"><sodipodi:namedview
     id="namedview1"
     pagecolor="#ffffff"
     bordercolor="#000000"
     borderopacity="0.25"
     inkscape:showpageshadow="2"
     inkscape:pageopacity="0.0"
     inkscape:pagecheckerboard="0"
     inkscape:deskcolor="#d1d1d1"
     inkscape:document-units="px"
     inkscape:zoom="1.6117063"
     inkscape:cx="223.67599"
     inkscape:cy="27.61049"
     inkscape:window-width="2560"
     inkscape:window-height="1369"
     inkscape:window-x="-8"
     inkscape:window-y="371"
     inkscape:window-maximized="1"
     inkscape:current-layer="layer1" /><defs
     id="defs1" /><g
     inkscape:label="Layer 1"
     inkscape:groupmode="layer"
     id="layer1"
     transform="translate(-4.792944,-4.1363062)"><g
       id="g1"
       inkscape:label="1"
       transform="matrix(0.01948652,0,0,0.01948652,4.7929546,4.1363043)"
       style="fill:#1ab19a;fill-opacity:1"><path
         id="path1"
         d="m 9581.6,6370.59 c -92.85,0 -162.5,23.2 -255.39,69.64 L 4381.09,9295.9 c -116.09,69.65 -185.74,185.7 -232.18,301.8 -23.21,139.29 -23.21,255.39 46.44,371.48 L 14132.1,27149.4 c 116.1,255.4 417.9,325.1 650,185.8 l 4968.4,-2855.7 c 116.1,-69.6 185.7,-162.5 232.2,-301.8 23.2,-116.1 0,-255.4 -69.7,-371.4 L 9999.49,6625.98 C 9906.64,6463.44 9744.14,6370.59 9581.6,6370.59 Z M 5286.52,9899.53 9395.86,7531.41 18845,23875.9 14712.5,26244 Z"
         style="fill:#1ab19a;fill-opacity:1;fill-rule:evenodd;stroke:none"
         transform="matrix(0.13333333,0,0,-0.13333333,0,5285.3333)" /><path
         id="path2"
         d="m 6238.4,3027.38 c -69.65,0 -162.5,0 -232.15,46.45 l -2878.87,1671.6 c -116.09,46.44 -185.74,162.5 -232.15,278.59 -23.24,139.3 0,278.6 69.65,371.49 l 2275.24,3970.04 c 139.29,232.15 441.09,325 673.28,185.7 L 8769.02,7902.89 c 116.1,-69.65 208.95,-185.74 232.19,-301.84 46.41,-139.29 23.2,-255.35 -46.44,-371.44 L 6656.33,3259.57 C 6586.68,3097.03 6400.94,3027.38 6238.4,3027.38 Z M 4032.85,5349.06 6075.9,4165 7863.59,7299.26 5843.75,8460.08 Z"
         style="fill:#1ab19a;fill-opacity:1;fill-rule:evenodd;stroke:none"
         transform="matrix(0.13333333,0,0,-0.13333333,0,5285.3333)" /><path
         id="path3"
         d="m 6447.38,9.22266 c -325.04,0 -626.87,92.88634 -905.47,255.38634 L 921.801,2934.53 C 39.5703,3445.31 -262.23,4559.69 248.52,5418.71 c 325.031,557.19 928.67,905.43 1578.75,905.43 325.03,0 626.83,-69.65 905.43,-232.15 L 7376.02,3422.07 C 7793.95,3166.68 8095.74,2772.03 8211.84,2307.7 8351.13,1843.36 8281.48,1355.78 8026.09,937.891 7701.05,357.5 7097.42,9.22266 6447.38,9.22266 Z M 1827.27,5349.06 c -301.84,0 -580.43,-162.54 -742.93,-417.89 C 852.148,4536.48 991.449,4002.5 1409.38,3770.31 L 6029.45,1100.43 c 394.69,-232.192 928.68,-69.65 1160.86,325 232.15,394.69 92.85,905.47 -301.83,1137.62 L 2245.16,5256.17 c -116.1,69.69 -255.39,92.89 -417.89,92.89 z"
         style="fill:#1ab19a;fill-opacity:1;fill-rule:evenodd;stroke:none"
         transform="matrix(0.13333333,0,0,-0.13333333,0,5285.3333)" /><path
         id="path4"
         d="m 18705.7,24015.2 c -69.6,0 -162.5,23.2 -232.1,69.7 l -3389.7,1950.2 c -92.8,69.6 -185.7,162.5 -208.9,301.8 -46.4,116.1 -23.2,255.4 46.4,371.5 l 185.7,325 c 348.3,626.8 1021.6,998.3 1741.3,998.3 348.3,0 696.5,-92.9 998.3,-255.4 l 743,-417.9 c 951.8,-557.2 1276.9,-1787.7 742.9,-2762.8 l -209,-325 c -92.8,-162.5 -255.4,-255.4 -417.9,-255.4 z m -2693.1,2623.5 2507.4,-1462.6 c 232.2,487.5 46.4,1067.9 -417.9,1323.3 l -742.9,417.9 c -441.1,278.6 -1044.8,139.3 -1346.6,-278.6 z"
         style="fill:#1ab19a;fill-opacity:1;fill-rule:evenodd;stroke:none"
         transform="matrix(0.13333333,0,0,-0.13333333,0,5285.3333)" /><path
         id="path5"
         d="m 17986,26661.9 c -92.8,0 -185.7,0 -255.4,46.5 -232.1,139.3 -301.8,441 -185.7,673.2 l 2484.2,4295.1 c 139.3,232.2 441.1,325 673.3,185.7 232.1,-139.3 301.8,-441.1 185.7,-673.3 l -2484.2,-4295 c -92.8,-162.5 -255.3,-232.2 -417.9,-232.2 z"
         style="fill:#1ab19a;fill-opacity:1;fill-rule:evenodd;stroke:none"
         transform="matrix(0.13333333,0,0,-0.13333333,0,5285.3333)" /><path
         id="path6"
         d="m 14457.1,22459.7 c -92.9,0 -162.5,23.2 -255.4,69.6 l -1648.4,952 c -232.1,139.3 -301.8,441 -162.5,673.2 116.1,232.2 417.9,301.8 650.1,162.5 l 1648.4,-951.8 c 232.1,-139.3 325,-417.9 185.7,-673.3 -92.9,-139.3 -255.4,-232.2 -417.9,-232.2 z"
         style="fill:#1ab19a;fill-opacity:1;fill-rule:evenodd;stroke:none"
         transform="matrix(0.13333333,0,0,-0.13333333,0,5285.3333)" /><path
         id="path7"
         d="m 14155.3,19650.5 c -69.7,0 -162.5,23.2 -232.2,69.7 l -2646.7,1532.2 c -232.1,139.4 -325,418 -185.7,650.1 139.3,255.4 441.1,325 673.3,185.7 l 2646.7,-1532.3 c 232.2,-116.1 301.8,-417.8 162.5,-650 -92.9,-162.5 -255.4,-255.4 -417.9,-255.4 z"
         style="fill:#1ab19a;fill-opacity:1;fill-rule:evenodd;stroke:none"
         transform="matrix(0.13333333,0,0,-0.13333333,0,5285.3333)" /><path
         id="path8"
         d="m 11880,18002.1 c -92.8,0 -162.5,23.2 -255.3,69.7 l -1648.41,951.8 c -232.15,116.1 -301.8,418 -162.5,650.1 116.05,232.2 417.91,325.1 650.01,185.7 l 1648.4,-951.8 c 232.2,-139.4 325.1,-441.2 185.8,-673.3 -92.9,-139.3 -255.4,-232.2 -418,-232.2 z"
         style="fill:#1ab19a;fill-opacity:1;fill-rule:evenodd;stroke:none"
         transform="matrix(0.13333333,0,0,-0.13333333,0,5285.3333)" /><path
         id="path9"
         d="m 11578.2,15192.9 c -69.6,0 -162.5,23.2 -232.1,69.6 l -2646.72,1532.3 c -232.15,116.1 -325.04,417.9 -185.75,650.1 139.3,232.2 441.14,325.1 673.28,185.8 l 2646.69,-1532.3 c 232.2,-139.3 301.8,-417.9 162.5,-650.1 -92.8,-162.5 -255.4,-255.4 -417.9,-255.4 z"
         style="fill:#1ab19a;fill-opacity:1;fill-rule:evenodd;stroke:none"
         transform="matrix(0.13333333,0,0,-0.13333333,0,5285.3333)" /><path
         id="path10"
         d="m 9303.01,13544.5 c -92.85,0 -162.5,23.2 -232.15,46.4 l -1671.6,975.2 c -232.19,116.1 -301.84,417.8 -162.54,650 116.09,232.2 417.93,325 650.08,185.7 L 9535.2,14450 c 255.35,-139.3 325,-441.1 185.7,-673.3 -92.85,-162.5 -255.35,-232.2 -417.89,-232.2 z"
         style="fill:#1ab19a;fill-opacity:1;fill-rule:evenodd;stroke:none"
         transform="matrix(0.13333333,0,0,-0.13333333,0,5285.3333)" /><path
         id="path11"
         d="m 9001.21,10735.3 c -69.65,0 -162.54,23.2 -232.19,69.7 l -2646.68,1509 c -232.18,139.4 -325.04,441.2 -185.74,673.3 139.3,232.2 441.13,325 673.28,185.8 l 2646.68,-1532.4 c 232.19,-139.3 301.84,-441 162.54,-673.2 -69.65,-139.3 -255.39,-232.2 -417.89,-232.2 z"
         style="fill:#1ab19a;fill-opacity:1;fill-rule:evenodd;stroke:none"
         transform="matrix(0.13333333,0,0,-0.13333333,0,5285.3333)" /><path
         id="path12"
         d="m 13853.5,29865.8 c -1485.9,0 -2693.1,1207.3 -2693.1,2693.1 v 4388 c 0,1485.8 1207.2,2693.1 2693.1,2693.1 1485.8,0 2693.1,-1207.3 2693.1,-2693.1 v -4388 c 0,-1485.8 -1207.3,-2693.1 -2693.1,-2693.1 z m 0,8799.1 c -951.9,0 -1718.1,-766.1 -1718.1,-1718 v -4388 c 0,-951.9 766.2,-1718 1718.1,-1718 951.9,0 1718,766.1 1718,1718 v 4388 c 0,951.9 -766.1,1718 -1718,1718 z"
         style="fill:#ff7cd8;fill-opacity:1;fill-rule:evenodd;stroke:none"
         transform="matrix(0.13333333,0,0,-0.13333333,0,5285.3333)" /><path
         id="path13"
         d="m 16059.1,34253.8 h -4411.2 c -255.4,0 -487.5,232.1 -487.5,487.5 0,278.6 232.1,487.5 487.5,487.5 h 4411.2 c 255.3,0 487.5,-208.9 487.5,-487.5 0,-255.4 -232.2,-487.5 -487.5,-487.5 z"
         style="fill:#ff7cd8;fill-opacity:1;fill-rule:evenodd;stroke:none"
         transform="matrix(0.13333333,0,0,-0.13333333,0,5285.3333)" /><path
         id="path14"
         d="m 19100.4,8135.04 c -464.3,0 -928.6,139.3 -1323.3,371.48 -626.9,348.25 -1068,928.68 -1253.7,1625.18 -185.7,696.5 -92.9,1416.2 255.4,2043 l 2205.5,3807.6 c 487.6,835.8 1369.8,1346.5 2344.9,1346.5 464.4,0 928.7,-116.1 1323.4,-348.2 626.8,-371.5 1068,-951.9 1253.7,-1648.4 185.7,-696.5 92.8,-1416.2 -255.4,-2043.1 L 21445.3,9481.6 C 20957.7,8645.82 20075.5,8135.04 19100.4,8135.04 Z m 2228.8,8218.76 c -626.8,0 -1184,-325.1 -1509,-859.1 l -2182.4,-3807.5 c -487.6,-812.6 -209,-1880.56 626.8,-2344.9 255.4,-139.29 534,-232.14 835.8,-232.14 626.9,0 1184,325.04 1485.9,859.02 l 2205.6,3807.52 c 487.5,835.8 208.9,1880.5 -626.9,2344.9 -255.3,162.5 -557.2,232.2 -835.8,232.2 z"
         style="fill:#ff7cd8;fill-opacity:1;fill-rule:evenodd;stroke:none"
         transform="matrix(0.13333333,0,0,-0.13333333,0,5285.3333)" /><path
         id="path15"
         d="m 22118.6,11153.2 c -92.9,0 -162.5,23.2 -232.2,69.7 l -3830.7,2182.3 c -232.2,139.3 -301.8,441.1 -162.5,673.3 116.1,232.2 417.9,301.8 650,185.7 L 22374,12058.7 c 232.1,-139.3 301.8,-441.2 162.5,-673.3 -92.9,-162.5 -255.4,-232.2 -417.9,-232.2 z"
         style="fill:#ff7cd8;fill-opacity:1;fill-rule:evenodd;stroke:none"
         transform="matrix(0.13333333,0,0,-0.13333333,0,5285.3333)"
         sodipodi:nodetypes="sccccccs" /></g><text
       xml:space="preserve"
       style="font-size:82.073px;line-height:0;text-align:start;writing-mode:lr-tb;direction:ltr;text-anchor:start;fill:#000000;stroke-width:1.23109"
       x="81.016701"
       y="83.058144"
       id="text1"><tspan
         sodipodi:role="line"
         id="tspan1"
         x="81.016701"
         y="83.058144"
         style="font-style:normal;font-variant:normal;font-weight:normal;font-stretch:normal;font-size:82.073px;line-height:0;font-family:Arial;-inkscape-font-specification:Arial;fill:#ff7cd8;fill-opacity:1;stroke-width:1.23109"><tspan
   style="font-style:normal;font-variant:normal;font-weight:normal;font-stretch:normal;font-family:Arial;-inkscape-font-specification:Arial;fill:#1ab19a;fill-opacity:1"
   id="tspan3">Medi</tspan>Track</tspan></text></g></svg>
